<mxfile host="app.diagrams.net" modified="2023-09-26T11:07:18.083Z" agent="Mozilla/5.0 (X11; Linux x86_64) AppleWebKit/537.36 (KHTML, like Gecko) Chrome/117.0.0.0 Safari/537.36" version="21.8.0" etag="lorENn2xrGa08cs_3Y6M" type="device">
  <diagram id="c8nlxInh7qi0cRRuTaQq" name="Page-1">
    <mxGraphModel dx="880" dy="1697" grid="1" gridSize="10" guides="1" tooltips="1" connect="1" arrows="1" fold="1" page="1" pageScale="1" pageWidth="827" pageHeight="1169" math="0" shadow="0">
      <root>
        <mxCell id="0" />
        <mxCell id="1" parent="0" />
        <mxCell id="24" style="edgeStyle=none;html=1;endArrow=open;endFill=0;" parent="1" source="2" target="8" edge="1">
          <mxGeometry relative="1" as="geometry" />
        </mxCell>
        <mxCell id="2" value="&lt;p style=&quot;line-height: 120%;&quot;&gt;ProdutoBuilder&lt;/p&gt;" style="swimlane;fontStyle=1;align=center;verticalAlign=middle;childLayout=stackLayout;horizontal=1;startSize=30;horizontalStack=0;resizeParent=1;resizeParentMax=0;resizeLast=0;collapsible=0;marginBottom=0;html=1;whiteSpace=wrap;" parent="1" vertex="1">
          <mxGeometry x="180" y="-210" width="280" height="163" as="geometry" />
        </mxCell>
        <mxCell id="3" value="- produto: Produto" style="text;html=1;strokeColor=none;fillColor=none;align=left;verticalAlign=middle;spacingLeft=4;spacingRight=4;overflow=hidden;rotatable=0;points=[[0,0.5],[1,0.5]];portConstraint=eastwest;whiteSpace=wrap;" parent="2" vertex="1">
          <mxGeometry y="30" width="280" height="25" as="geometry" />
        </mxCell>
        <mxCell id="5" value="" style="line;html=1;strokeWidth=1;align=left;verticalAlign=middle;spacingTop=-1;spacingLeft=3;spacingRight=3;rotatable=0;labelPosition=right;points=[];portConstraint=eastwest;" parent="2" vertex="1">
          <mxGeometry y="55" width="280" height="8" as="geometry" />
        </mxCell>
        <mxCell id="6" value="+ build(): Produto" style="text;html=1;strokeColor=none;fillColor=none;align=left;verticalAlign=middle;spacingLeft=4;spacingRight=4;overflow=hidden;rotatable=0;points=[[0,0.5],[1,0.5]];portConstraint=eastwest;whiteSpace=wrap;" parent="2" vertex="1">
          <mxGeometry y="63" width="280" height="25" as="geometry" />
        </mxCell>
        <mxCell id="7" value="+ setNome(nome: String): ProdutoBuilder" style="text;html=1;strokeColor=none;fillColor=none;align=left;verticalAlign=middle;spacingLeft=4;spacingRight=4;overflow=hidden;rotatable=0;points=[[0,0.5],[1,0.5]];portConstraint=eastwest;whiteSpace=wrap;" parent="2" vertex="1">
          <mxGeometry y="88" width="280" height="25" as="geometry" />
        </mxCell>
        <mxCell id="17" value="+ setPreco(preco: double): ProdutoBuilder" style="text;html=1;strokeColor=none;fillColor=none;align=left;verticalAlign=middle;spacingLeft=4;spacingRight=4;overflow=hidden;rotatable=0;points=[[0,0.5],[1,0.5]];portConstraint=eastwest;whiteSpace=wrap;" parent="2" vertex="1">
          <mxGeometry y="113" width="280" height="25" as="geometry" />
        </mxCell>
        <mxCell id="16" value="&lt;span style=&quot;font-family: Helvetica; font-size: 12px; font-style: normal; font-variant-ligatures: normal; font-variant-caps: normal; font-weight: 400; letter-spacing: normal; orphans: 2; text-align: left; text-indent: 0px; text-transform: none; widows: 2; word-spacing: 0px; -webkit-text-stroke-width: 0px; text-decoration-thickness: initial; text-decoration-style: initial; text-decoration-color: initial; float: none; display: inline !important;&quot;&gt;+ setDescricao(descricao: String): ProdutoBuilder&lt;/span&gt;" style="text;html=1;strokeColor=none;fillColor=none;align=left;verticalAlign=middle;spacingLeft=4;spacingRight=4;overflow=hidden;rotatable=0;points=[[0,0.5],[1,0.5]];portConstraint=eastwest;whiteSpace=wrap;labelBackgroundColor=none;" parent="2" vertex="1">
          <mxGeometry y="138" width="280" height="25" as="geometry" />
        </mxCell>
        <mxCell id="8" value="&lt;p style=&quot;line-height: 120%;&quot;&gt;Produto&lt;/p&gt;" style="swimlane;fontStyle=1;align=center;verticalAlign=middle;childLayout=stackLayout;horizontal=1;startSize=30;horizontalStack=0;resizeParent=1;resizeParentMax=0;resizeLast=0;collapsible=0;marginBottom=0;html=1;whiteSpace=wrap;" parent="1" vertex="1">
          <mxGeometry x="212" width="216" height="263" as="geometry" />
        </mxCell>
        <mxCell id="9" value="- nome: String" style="text;html=1;strokeColor=none;fillColor=none;align=left;verticalAlign=middle;spacingLeft=4;spacingRight=4;overflow=hidden;rotatable=0;points=[[0,0.5],[1,0.5]];portConstraint=eastwest;whiteSpace=wrap;" parent="8" vertex="1">
          <mxGeometry y="30" width="216" height="25" as="geometry" />
        </mxCell>
        <mxCell id="10" value="- preco: double" style="text;html=1;strokeColor=none;fillColor=none;align=left;verticalAlign=middle;spacingLeft=4;spacingRight=4;overflow=hidden;rotatable=0;points=[[0,0.5],[1,0.5]];portConstraint=eastwest;whiteSpace=wrap;" parent="8" vertex="1">
          <mxGeometry y="55" width="216" height="25" as="geometry" />
        </mxCell>
        <mxCell id="18" value="- descricao: String" style="text;html=1;strokeColor=none;fillColor=none;align=left;verticalAlign=middle;spacingLeft=4;spacingRight=4;overflow=hidden;rotatable=0;points=[[0,0.5],[1,0.5]];portConstraint=eastwest;whiteSpace=wrap;" parent="8" vertex="1">
          <mxGeometry y="80" width="216" height="25" as="geometry" />
        </mxCell>
        <mxCell id="11" value="" style="line;html=1;strokeWidth=1;align=left;verticalAlign=middle;spacingTop=-1;spacingLeft=3;spacingRight=3;rotatable=0;labelPosition=right;points=[];portConstraint=eastwest;" parent="8" vertex="1">
          <mxGeometry y="105" width="216" height="8" as="geometry" />
        </mxCell>
        <mxCell id="12" value="+ getNome(): String" style="text;html=1;strokeColor=none;fillColor=none;align=left;verticalAlign=middle;spacingLeft=4;spacingRight=4;overflow=hidden;rotatable=0;points=[[0,0.5],[1,0.5]];portConstraint=eastwest;whiteSpace=wrap;" parent="8" vertex="1">
          <mxGeometry y="113" width="216" height="25" as="geometry" />
        </mxCell>
        <mxCell id="22" value="+ getPreco(): double" style="text;html=1;strokeColor=none;fillColor=none;align=left;verticalAlign=middle;spacingLeft=4;spacingRight=4;overflow=hidden;rotatable=0;points=[[0,0.5],[1,0.5]];portConstraint=eastwest;whiteSpace=wrap;" parent="8" vertex="1">
          <mxGeometry y="138" width="216" height="25" as="geometry" />
        </mxCell>
        <mxCell id="21" value="+ getDescricao(): String" style="text;html=1;strokeColor=none;fillColor=none;align=left;verticalAlign=middle;spacingLeft=4;spacingRight=4;overflow=hidden;rotatable=0;points=[[0,0.5],[1,0.5]];portConstraint=eastwest;whiteSpace=wrap;" parent="8" vertex="1">
          <mxGeometry y="163" width="216" height="25" as="geometry" />
        </mxCell>
        <mxCell id="20" value="+ setNome(nome: String): void" style="text;html=1;strokeColor=none;fillColor=none;align=left;verticalAlign=middle;spacingLeft=4;spacingRight=4;overflow=hidden;rotatable=0;points=[[0,0.5],[1,0.5]];portConstraint=eastwest;whiteSpace=wrap;" parent="8" vertex="1">
          <mxGeometry y="188" width="216" height="25" as="geometry" />
        </mxCell>
        <mxCell id="23" value="+ setPreco(preco: double): void" style="text;html=1;strokeColor=none;fillColor=none;align=left;verticalAlign=middle;spacingLeft=4;spacingRight=4;overflow=hidden;rotatable=0;points=[[0,0.5],[1,0.5]];portConstraint=eastwest;whiteSpace=wrap;" parent="8" vertex="1">
          <mxGeometry y="213" width="216" height="25" as="geometry" />
        </mxCell>
        <mxCell id="13" value="+ setDescricao(descricao: String): void" style="text;html=1;strokeColor=none;fillColor=none;align=left;verticalAlign=middle;spacingLeft=4;spacingRight=4;overflow=hidden;rotatable=0;points=[[0,0.5],[1,0.5]];portConstraint=eastwest;whiteSpace=wrap;" parent="8" vertex="1">
          <mxGeometry y="238" width="216" height="25" as="geometry" />
        </mxCell>
      </root>
    </mxGraphModel>
  </diagram>
</mxfile>
